<?xml version="1.0" encoding="UTF-8"?>
<!-- Generator: $$$/GeneralStr/196=Adobe Illustrator 27.6.0, SVG Export Plug-In . SVG Version: 6.00 Build 0)  -->
<svg xmlns="http://www.w3.org/2000/svg" xmlns:xlink="http://www.w3.org/1999/xlink" version="1.1" id="Livello_1" x="0px" y="0px" viewBox="0 0 191.2 64.2" style="enable-background:new 0 0 191.2 64.2;" xml:space="preserve">
<style type="text/css">
	.st0{fill:#003C6D;}
	.st1{fill:#FFFFFF;}
</style>
<g>
	<g>
		<g>
			<g>
				<rect x="2.2" y="1.8" class="st0" width="60.2" height="60.2"></rect>
			</g>
			<g>
				<path class="st0" d="M61.2,2.9v58h-58v-58H61.2 M63.4,0.7H1v62.4h62.4V0.7L63.4,0.7z"></path>
			</g>
		</g>
		<g>
			<polygon class="st1" points="63.4,38.4 49.6,32.4 49.6,27.4 63.4,21.4    "></polygon>
			<g>
				<g>
					<path class="st1" d="M42.9,27.4l0.8,2.2H45l-1-2.7c-0.4-1-1.3-1.6-2.4-1.6H39v1.2h2.6C42.2,26.6,42.7,26.9,42.9,27.4z"></path>
					<path class="st1" d="M17.8,28.7h3.1l0.4,0.9h1.3l-0.4-0.9h2h1.2v-1.2h-1.2h-6.4c-0.3,0-0.6,0.3-0.6,0.6S17.5,28.7,17.8,28.7z"></path>
				</g>
				<g>
					<path class="st1" d="M29.3,47.1L29.3,47.1L29.3,47.1L29.3,47.1z"></path>
					<path class="st1" d="M30.7,46.6L30.7,46.6c0.1,0,0.1,0,0.2,0C30.9,46.6,30.8,46.6,30.7,46.6z"></path>
					<path class="st1" d="M30.7,46.6L30.7,46.6L30.7,46.6z"></path>
					<path class="st1" d="M63.4,46.3v-3.4c-2.3-4.4-6.9-7.4-12.1-7.4c-1.4,0-2.8,0.2-4,0.6l-2-5.7H23l0,0h-1.3l0.4,0.8l-3,5.6       c-1.8-0.9-3.8-1.4-6-1.4c-5.1,0-9.6,2.8-11.9,7v3.1c1.6-5.1,6.3-8.9,11.9-8.9c1.9,0,3.8,0.4,5.4,1.2l-4.7,8.6h-0.4       c-0.1,0-0.2,0-0.3,0c-0.7,0-1.4,0.3-1.8,0.8c-0.5,0.5-0.8,1.1-0.8,1.8c0,1.4,1.1,2.6,2.6,2.6l12.2,0.5       c-1.4,5.4-6.3,9.4-12.1,9.4c-5.6,0-10.4-3.7-11.9-8.9v3.1c2.3,4.2,6.8,7,11.9,7c6.5,0,11.9-4.5,13.3-10.5l4.4,0.2l0,0       c0.3,0,0.6,0,0.8-0.1l0.7,1.7l-1,0.4c-0.3,0.1-0.5,0.5-0.3,0.8c0.1,0.2,0.3,0.4,0.6,0.4c0.1,0,0.2,0,0.2,0l3.2-1.3       c0.3-0.1,0.5-0.5,0.3-0.8c-0.1-0.3-0.5-0.5-0.8-0.3l-1.1,0.4l-0.7-1.7c0.2-0.1,0.4-0.3,0.6-0.5c0.7-0.6,1.1-1.6,1.1-2.6       s-0.4-1.9-1.1-2.5L44.7,32l1.6,4.4c-5,2-8.5,7-8.5,12.7c0,7.6,6.1,13.7,13.7,13.7c5.3,0,9.9-3,12.1-7.4V52       c-1.3,5.5-6.3,9.6-12.1,9.6C44.6,61.6,39,56,39,49.1c0-5.2,3.2-9.7,7.7-11.5l3.3,9.3c-0.7,0.5-1.1,1.2-1.1,2.1       c0,1.4,1.2,2.6,2.6,2.6s2.6-1.2,2.6-2.6c0-1.4-1.2-2.6-2.6-2.6c-0.1,0-0.2,0-0.3,0l-3.3-9.3c1.1-0.3,2.4-0.5,3.6-0.5       C57.2,36.7,62.1,40.8,63.4,46.3z M19.5,38.5c2.7,1.6,4.7,4.2,5.6,7.3l-9.9,0.7L19.5,38.5z M13,50.5c-0.7,0-1.4-0.6-1.4-1.4       c0-0.4,0.1-0.7,0.4-0.9c0.2-0.2,0.6-0.4,0.9-0.4H13l-0.6,1.1c-0.2,0.3,0,0.7,0.2,0.8c0.3,0.2,0.7,0,0.8-0.2l0.6-1.1       c0.1,0.2,0.2,0.5,0.2,0.7C14.4,49.9,13.8,50.5,13,50.5z M25.4,51.1l-10.3-0.4c0.3-0.4,0.5-0.9,0.5-1.5c0-0.5-0.2-1-0.4-1.4       l10.2-0.7c0.1,0.7,0.2,1.4,0.2,2.2C25.5,49.8,25.4,50.5,25.4,51.1z M26.3,45.7c-0.9-3.5-3.2-6.5-6.2-8.3l2.7-5l5.9,13.1       L26.3,45.7z M26.6,51.1c0.1-0.6,0.1-1.3,0.1-1.9c0-0.8-0.1-1.5-0.2-2.3l1.4-0.1c-0.4,0.6-0.7,1.3-0.7,2.1       c0,0.9,0.3,1.7,0.8,2.3L26.6,51.1z M32.2,50.8l-0.8-2l-0.1-0.1c-0.1-0.3-0.5-0.5-0.8-0.3c-0.2,0.1-0.3,0.3-0.4,0.5       c0,0.1,0,0.2,0,0.3l0.9,2.1c-0.1,0-0.2,0-0.3,0c-1.3,0-2.4-1.1-2.4-2.4c0-0.7,0.3-1.3,0.8-1.7l0,0c0,0,0,0,0.1-0.1       c0,0,0.1,0,0.1-0.1c0.3-0.3,0.8-0.4,1.2-0.4c0.1,0,0.1,0,0.2,0l0,0c0.1,0,0.1,0,0.2,0H31h0.1h0.1h0.1c1,0.3,1.7,1.2,1.7,2.3       C33.1,49.7,32.7,50.4,32.2,50.8z M32.3,45.7c-0.5-0.2-1-0.3-1.5-0.3c-0.3,0-0.6,0-0.8,0.1l-6.2-13.8h19.5L32.3,45.7z        M50.3,48.2l0.4,1.2c0.1,0.2,0.3,0.4,0.6,0.4c0.1,0,0.1,0,0.2,0c0.3-0.1,0.5-0.5,0.4-0.8l-0.4-1.2c0.7,0.1,1.2,0.6,1.2,1.3       s-0.6,1.4-1.4,1.4s-1.4-0.6-1.4-1.4C49.9,48.8,50.1,48.4,50.3,48.2z"></path>
				</g>
			</g>
			<path class="st1" d="M48.2,27.3c-1.4,0-2.6,1.2-2.6,2.6c0,1.4,1.2,2.6,2.6,2.6h0.6v-5.1L48.2,27.3L48.2,27.3z M47.6,31.1     c-0.4-0.2-0.7-0.7-0.7-1.2s0.3-1,0.7-1.2V31.1z"></path>
		</g>
	</g>
	<g>
		<path class="st0" d="M86.4,14.1h-5.9v4.1h5.7v2.4h-5.7v8.1h-2.6v-17h8.5V14.1z"></path>
		<path class="st0" d="M87.5,23.3c0-1.5,0.6-2.9,1.7-4s2.5-1.6,4.1-1.6s3,0.5,4.1,1.6s1.7,2.4,1.7,4s-0.6,3-1.7,4    c-1.1,1.1-2.5,1.6-4.1,1.6s-3-0.6-4-1.7C88.1,26.3,87.5,24.9,87.5,23.3z M90.1,23.3c0,1.1,0.3,1.9,0.9,2.5s1.4,0.9,2.3,0.9    c1,0,1.7-0.3,2.3-0.9c0.6-0.6,0.9-1.5,0.9-2.5s-0.3-1.9-0.9-2.5s-1.4-0.9-2.3-0.9s-1.7,0.3-2.3,0.9C90.4,21.5,90.1,22.3,90.1,23.3    z"></path>
		<path class="st0" d="M100.9,18h2.5v1c0.9-0.9,1.8-1.3,2.9-1.3c1.2,0,2.2,0.4,2.9,1.2c0.6,0.7,0.9,1.8,0.9,3.3v6.6h-2.5v-6    c0-1.1-0.1-1.8-0.4-2.2s-0.8-0.6-1.6-0.6c-0.8,0-1.4,0.3-1.8,0.8c-0.3,0.5-0.5,1.5-0.5,2.8v5.2h-2.5V18H100.9z"></path>
		<path class="st0" d="M120.5,10.1h2.5v18.6h-2.5v-1.1c-1,1-2.1,1.4-3.3,1.4c-1.5,0-2.7-0.5-3.7-1.6s-1.4-2.5-1.4-4.1s0.5-2.9,1.4-4    c1-1.1,2.2-1.6,3.6-1.6c1.3,0,2.4,0.5,3.4,1.5V10.1z M114.6,23.3c0,1,0.3,1.9,0.8,2.5c0.6,0.7,1.3,1,2.1,1c0.9,0,1.7-0.3,2.2-0.9    c0.6-0.7,0.8-1.5,0.8-2.5s-0.3-1.8-0.8-2.5c-0.6-0.6-1.3-1-2.2-1c-0.9,0-1.6,0.3-2.1,1C114.9,21.6,114.6,22.4,114.6,23.3z"></path>
		<path class="st0" d="M133.4,18h2.5v10.7h-2.5v-1.1c-1,1-2.1,1.4-3.3,1.4c-1.5,0-2.7-0.5-3.7-1.6s-1.4-2.5-1.4-4.1s0.5-2.9,1.4-4    c1-1.1,2.2-1.6,3.6-1.6c1.2,0,2.4,0.5,3.4,1.5V18z M127.5,23.3c0,1,0.3,1.9,0.8,2.5c0.6,0.7,1.3,1,2.1,1c0.9,0,1.7-0.3,2.2-0.9    c0.6-0.7,0.8-1.5,0.8-2.5s-0.3-1.8-0.8-2.5c-0.6-0.6-1.3-1-2.2-1c-0.9,0-1.6,0.3-2.1,1C127.8,21.6,127.5,22.4,127.5,23.3z"></path>
		<path class="st0" d="M141.9,26.4h6.4v2.3H137l6.9-8.4h-5.5V18h10.4L141.9,26.4z"></path>
		<path class="st0" d="M149.5,13.5c0-0.4,0.2-0.8,0.5-1.1s0.7-0.5,1.1-0.5s0.8,0.2,1.1,0.5c0.3,0.3,0.5,0.7,0.5,1.1    c0,0.4-0.2,0.8-0.5,1.1s-0.7,0.5-1.1,0.5s-0.8-0.2-1.1-0.5C149.7,14.4,149.5,14,149.5,13.5z M152.4,18v10.7h-2.5V18H152.4z"></path>
		<path class="st0" d="M154.3,23.3c0-1.5,0.6-2.9,1.7-4s2.5-1.6,4.1-1.6s3,0.5,4.1,1.6s1.7,2.4,1.7,4s-0.6,3-1.7,4    c-1.1,1.1-2.5,1.6-4.1,1.6s-3-0.6-4-1.7C154.9,26.3,154.3,24.9,154.3,23.3z M156.8,23.3c0,1.1,0.3,1.9,0.9,2.5s1.4,0.9,2.3,0.9    c1,0,1.7-0.3,2.3-0.9c0.6-0.6,0.9-1.5,0.9-2.5s-0.3-1.9-0.9-2.5s-1.4-0.9-2.3-0.9s-1.7,0.3-2.3,0.9    C157.1,21.5,156.8,22.3,156.8,23.3z"></path>
		<path class="st0" d="M167.7,18h2.5v1c0.9-0.9,1.8-1.3,2.9-1.3c1.2,0,2.2,0.4,2.9,1.2c0.6,0.7,0.9,1.8,0.9,3.3v6.6h-2.5v-6    c0-1.1-0.1-1.8-0.4-2.2s-0.8-0.6-1.6-0.6c-0.8,0-1.4,0.3-1.8,0.8c-0.3,0.5-0.5,1.5-0.5,2.8v5.2h-2.5V18H167.7z"></path>
		<path class="st0" d="M189.2,24h-7.7c0.1,0.9,0.4,1.6,0.9,2.1s1.2,0.8,1.9,0.8c0.6,0,1.1-0.1,1.5-0.4c0.4-0.3,0.8-0.8,1.4-1.6    l2.1,1.2c-0.3,0.6-0.7,1-1,1.4c-0.4,0.4-0.7,0.7-1.2,1c-0.4,0.3-0.9,0.4-1.3,0.6c-0.5,0.1-1,0.2-1.6,0.2c-1.6,0-2.9-0.5-3.9-1.5    s-1.5-2.4-1.5-4.1c0-1.7,0.5-3.1,1.4-4.1s2.2-1.6,3.8-1.6c1.6,0,2.8,0.5,3.7,1.5c0.9,1,1.4,2.4,1.4,4.2L189.2,24z M186.6,21.9    c-0.3-1.3-1.2-2-2.5-2c-0.3,0-0.6,0-0.8,0.1c-0.3,0.1-0.5,0.2-0.7,0.4s-0.4,0.4-0.6,0.6c-0.2,0.2-0.3,0.5-0.4,0.8h5V21.9z"></path>
	</g>
	<g>
		<path class="st0" d="M76.2,52.4l3.6-18.3l5.8,13.2l6-13.2l3.2,18.3h-2.6l-1.6-10.3l-5,11L80.7,42l-1.8,10.3L76.2,52.4L76.2,52.4z"></path>
		<path class="st0" d="M104.7,41.6h2.5v10.7h-2.5v-1.1c-1,1-2.1,1.4-3.3,1.4c-1.5,0-2.7-0.5-3.7-1.6s-1.4-2.5-1.4-4.1s0.5-2.9,1.4-4    c1-1.1,2.2-1.6,3.6-1.6c1.2,0,2.4,0.5,3.4,1.5V41.6z M98.9,47c0,1,0.3,1.9,0.8,2.5c0.6,0.7,1.3,1,2.1,1c0.9,0,1.7-0.3,2.2-0.9    c0.6-0.7,0.8-1.5,0.8-2.5s-0.3-1.8-0.8-2.5c-0.6-0.6-1.3-1-2.2-1c-0.9,0-1.6,0.3-2.1,1C99.1,45.2,98.9,46,98.9,47z"></path>
		<path class="st0" d="M109.7,41.6h2.5v1c0.5-0.5,0.9-0.8,1.2-1c0.4-0.2,0.8-0.3,1.3-0.3c0.7,0,1.3,0.2,2,0.6l-1.1,2.3    c-0.5-0.3-0.9-0.5-1.4-0.5c-1.4,0-2,1-2,3.1v5.6h-2.5V41.6z"></path>
		<path class="st0" d="M125.6,42.1v3.3c-0.6-0.7-1.1-1.2-1.5-1.4c-0.4-0.3-1-0.4-1.6-0.4c-0.9,0-1.7,0.3-2.3,1    c-0.6,0.7-0.9,1.5-0.9,2.5s0.3,1.8,0.9,2.5c0.6,0.6,1.4,1,2.3,1c0.6,0,1.1-0.1,1.6-0.4c0.4-0.2,1-0.7,1.6-1.5V52    c-1,0.5-2,0.8-3,0.8c-1.7,0-3-0.5-4.2-1.6c-1.1-1.1-1.7-2.4-1.7-4s0.6-3,1.7-4.1s2.5-1.7,4.2-1.7    C123.6,41.3,124.6,41.6,125.6,42.1z"></path>
		<path class="st0" d="M126.8,46.9c0-1.5,0.6-2.9,1.7-4s2.5-1.6,4.1-1.6s3,0.5,4.1,1.6s1.7,2.4,1.7,4s-0.6,3-1.7,4    c-1.1,1.1-2.5,1.6-4.1,1.6s-3-0.6-4-1.7C127.3,49.9,126.8,48.6,126.8,46.9z M129.3,47c0,1.1,0.3,1.9,0.9,2.5s1.4,0.9,2.3,0.9    c1,0,1.7-0.3,2.3-0.9c0.6-0.6,0.9-1.5,0.9-2.5s-0.3-1.9-0.9-2.5s-1.4-0.9-2.3-0.9s-1.7,0.3-2.3,0.9C129.6,45.1,129.3,46,129.3,47z    "></path>
		<path class="st0" d="M143.3,52.4v-17h2.6c1.1,0,2,0.1,2.7,0.3s1.3,0.5,1.7,0.9c0.5,0.4,0.9,1,1.1,1.6c0.3,0.7,0.4,1.3,0.4,2    c0,1.2-0.5,2.3-1.4,3.1c0.9,0.3,1.6,0.8,2.1,1.6s0.8,1.7,0.8,2.7c0,1.3-0.5,2.5-1.4,3.4c-0.6,0.6-1.2,1-1.9,1.2    c-0.8,0.2-1.7,0.3-2.9,0.3L143.3,52.4L143.3,52.4z M145.9,42.6h0.8c1,0,1.7-0.2,2.1-0.6c0.4-0.4,0.7-1,0.7-1.9    c0-0.8-0.2-1.4-0.7-1.8c-0.5-0.4-1.1-0.6-2-0.6h-0.9V42.6z M145.9,49.9h1.6c1.2,0,2-0.2,2.6-0.7s0.9-1.1,0.9-1.9    c0-0.7-0.3-1.4-0.8-1.9s-1.5-0.7-2.9-0.7H146v5.2H145.9z"></path>
		<path class="st0" d="M154.7,37.2c0-0.4,0.2-0.8,0.5-1.1s0.7-0.5,1.1-0.5s0.8,0.2,1.1,0.5c0.3,0.3,0.5,0.7,0.5,1.1    c0,0.4-0.2,0.8-0.5,1.1s-0.7,0.5-1.1,0.5s-0.8-0.2-1.1-0.5C154.9,38,154.7,37.6,154.7,37.2z M157.5,41.6v10.7H155V41.6H157.5z"></path>
		<path class="st0" d="M167.9,41.6h2.5v10.7h-2.5v-1.1c-1,1-2.1,1.4-3.3,1.4c-1.5,0-2.7-0.5-3.7-1.6s-1.4-2.5-1.4-4.1s0.5-2.9,1.4-4    c1-1.1,2.2-1.6,3.6-1.6c1.2,0,2.4,0.5,3.4,1.5V41.6z M162,47c0,1,0.3,1.9,0.8,2.5c0.6,0.7,1.3,1,2.1,1c0.9,0,1.7-0.3,2.2-0.9    c0.6-0.7,0.8-1.5,0.8-2.5s-0.3-1.8-0.8-2.5c-0.6-0.6-1.3-1-2.2-1c-0.9,0-1.6,0.3-2.1,1C162.3,45.2,162,46,162,47z"></path>
		<path class="st0" d="M182.8,52.1c0,0.5,0,1,0,1.3c0,0.4-0.1,0.7-0.1,1c-0.2,0.8-0.5,1.5-1,2.1c-1,1.1-2.3,1.7-4,1.7    c-1.4,0-2.6-0.4-3.5-1.2c-1-0.8-1.5-1.9-1.7-3.3h2.5c0.1,0.5,0.3,0.9,0.5,1.2c0.5,0.7,1.3,1,2.2,1c1.8,0,2.7-1.1,2.7-3.3v-1.5    c-1,1-2.1,1.5-3.4,1.5c-1.5,0-2.7-0.5-3.6-1.6s-1.4-2.4-1.4-4s0.4-2.9,1.3-4c0.9-1.2,2.2-1.7,3.7-1.7c1.4,0,2.5,0.5,3.4,1.5v-1.2    h2.5v10.5H182.8z M180.4,47c0-1-0.3-1.9-0.8-2.5c-0.6-0.6-1.3-1-2.2-1c-0.9,0-1.7,0.3-2.2,1c-0.5,0.6-0.7,1.4-0.7,2.4    s0.2,1.8,0.7,2.4c0.5,0.7,1.3,1,2.2,1c0.9,0,1.7-0.3,2.2-1C180.1,48.8,180.4,48,180.4,47z"></path>
		<path class="st0" d="M184.9,37.2c0-0.4,0.2-0.8,0.5-1.1c0.3-0.3,0.7-0.5,1.1-0.5c0.4,0,0.8,0.2,1.1,0.5s0.5,0.7,0.5,1.1    c0,0.4-0.2,0.8-0.5,1.1s-0.7,0.5-1.1,0.5c-0.4,0-0.8-0.2-1.1-0.5C185,38,184.9,37.6,184.9,37.2z M187.7,41.6v10.7h-2.5V41.6H187.7    z"></path>
	</g>
</g>
</svg>
